<svg width="11" height="11" viewBox="0 0 11 11" fill="none" xmlns="http://www.w3.org/2000/svg">
<path d="M9.61691 4.29806H6.58119C6.48258 4.29806 6.40262 4.2181 6.40262 4.11949V1.08378C6.40262 0.590698 6.00284 0.190918 5.50977 0.190918C5.01669 0.190918 4.61691 0.590698 4.61691 1.08378V4.11949C4.61691 4.2181 4.53695 4.29806 4.43834 4.29806H1.40262C0.909546 4.29806 0.509766 4.69784 0.509766 5.19092C0.509766 5.68399 0.909546 6.08378 1.40262 6.08378H4.43834C4.53695 6.08378 4.61691 6.16373 4.61691 6.26235V9.29806C4.61691 9.79114 5.01669 10.1909 5.50977 10.1909C6.00284 10.1909 6.40262 9.79114 6.40262 9.29806V6.26235C6.40262 6.16373 6.48258 6.08378 6.58119 6.08378H9.61691C10.11 6.08378 10.5098 5.68399 10.5098 5.19092C10.5098 4.69784 10.11 4.29806 9.61691 4.29806Z" fill="#222222"/>
</svg>
