<svg width="251" height="30" viewBox="0 0 251 30" fill="none" xmlns="http://www.w3.org/2000/svg">
<path d="M3.92707 30L136 30V0.0402241C101.581 0.00986862 28.2605 -0.0326271 10.3306 0.0402241C-7.5993 0.113075 2.85981 3.25779 10.3306 4.82104C-5.19797 7.77149 3.86036 10.5428 10.3306 11.5597C-7.87946 15.1112 9.8919 18.5684 10.3306 18.4805C-3.91727 21.2853 4.39399 24.2023 10.3306 25.3102C-4.55762 28.6614 -0.141847 29.8331 3.92707 30Z" fill="#DB9224"/>
<path d="M247.073 0L115 0V29.9598C149.419 29.9901 222.739 30.0326 240.669 29.9598C258.599 29.8869 248.14 26.7422 240.669 25.179C256.198 22.2285 247.14 19.4572 240.669 18.4403C258.879 14.8888 241.108 11.4316 240.669 11.5195C254.917 8.71474 246.606 5.79769 240.669 4.68975C255.558 1.33863 251.142 0.166949 247.073 0Z" fill="#DB9224"/>
</svg>
