<svg width="24" height="16" viewBox="0 0 24 16" fill="none" xmlns="http://www.w3.org/2000/svg">
<path d="M0.75 8.375H15.75V2.75H1.5V4.625H0.75V1.625C0.75 1.00475 1.25475 0.5 1.875 0.5H15.375C15.9953 0.5 16.5 1.00475 16.5 1.625V2.375H19.0339C19.4344 2.375 19.8113 2.531 20.0948 2.8145L22.4355 5.15525C22.719 5.43838 22.875 5.81525 22.875 6.21613V7.32988C23.3104 7.48513 23.625 7.89763 23.625 8.38588C23.625 8.87413 23.3104 9.28663 22.875 9.44188V10.25C22.875 10.2519 22.8739 10.2534 22.8739 10.2553C22.8739 10.2571 22.875 10.2586 22.875 10.2605V11.3855C22.875 12.2128 22.2023 12.8855 21.375 12.8855H20.25C20.043 12.8855 19.875 12.7179 19.875 12.5105V12.125H19.1891C19.3852 12.4588 19.5 12.8461 19.5 13.2605C19.5 14.5014 18.4909 15.5105 17.25 15.5105C16.0091 15.5105 15 14.5014 15 13.2605C15 12.8461 15.1147 12.4588 15.3109 12.125H11.3141C11.5103 12.4588 11.625 12.8461 11.625 13.2605C11.625 14.5014 10.6159 15.5105 9.375 15.5105C8.13412 15.5105 7.125 14.5014 7.125 13.2605C7.125 12.8461 7.23975 12.4588 7.43587 12.125H6.43913C6.63525 12.4588 6.75 12.8461 6.75 13.2605C6.75 14.5014 5.74088 15.5105 4.5 15.5105C3.25912 15.5105 2.25 14.5014 2.25 13.2605C2.25 12.8461 2.36475 12.4588 2.56087 12.125H2.25C1.62975 12.125 1.125 11.6203 1.125 11V10.625H0.75C0.542999 10.625 0.375 10.4574 0.375 10.25V8.75C0.375 8.54263 0.542999 8.375 0.75 8.375ZM15.375 1.25H1.875C1.66838 1.25 1.5 1.41838 1.5 1.625V2H15.75V1.625C15.75 1.41838 15.5816 1.25 15.375 1.25ZM19.0339 3.125H16.5V8.75V9.875H18.3026C18.1444 9.44488 17.7345 9.1355 17.25 9.1355C17.043 9.1355 16.875 8.96788 16.875 8.7605V7.6355H16.8773C16.8769 7.63175 16.875 7.62875 16.875 7.625V3.875C16.875 3.668 17.043 3.5 17.25 3.5H19.7198L19.5645 3.34475C19.4227 3.203 19.2345 3.125 19.0339 3.125ZM20.625 11H22.125V10.6355H20.625V11ZM22.125 9.875V9.5105H21.75C21.543 9.5105 21.375 9.34288 21.375 9.1355V8H17.625V8.42338C18.3544 8.57225 18.9278 9.14713 19.0811 9.875H22.125ZM21.9053 5.6855L20.4698 4.25H17.625V7.25H21.75V7.2605H22.125V6.21613C22.125 6.0155 22.047 5.82725 21.9053 5.6855ZM22.5 8.0105H22.125V8.7605H22.5C22.7066 8.7605 22.875 8.5925 22.875 8.3855C22.875 8.1785 22.7066 8.0105 22.5 8.0105ZM21.375 12.1355C21.6559 12.1355 21.8978 11.9788 22.0264 11.75H20.625V12.1355H21.375ZM17.25 14.7605C18.0773 14.7605 18.75 14.0878 18.75 13.2605C18.75 12.4333 18.0773 11.7605 17.25 11.7605C16.4227 11.7605 15.75 12.4333 15.75 13.2605C15.75 14.0878 16.4227 14.7605 17.25 14.7605ZM9.375 14.7605C10.2023 14.7605 10.875 14.0878 10.875 13.2605C10.875 12.4333 10.2023 11.7605 9.375 11.7605C8.54775 11.7605 7.875 12.4333 7.875 13.2605C7.875 14.0878 8.54775 14.7605 9.375 14.7605ZM4.5 14.7605C5.32725 14.7605 6 14.0878 6 13.2605C6 12.4333 5.32725 11.7605 4.5 11.7605C3.67275 11.7605 3 12.4333 3 13.2605C3 14.0878 3.67275 14.7605 4.5 14.7605ZM1.875 11C1.875 11.207 2.04338 11.375 2.25 11.375H3.27637C3.62888 11.1455 4.04888 11.0105 4.5 11.0105C4.95112 11.0105 5.37112 11.1455 5.72363 11.375H8.15137C8.50387 11.1455 8.92387 11.0105 9.375 11.0105C9.82613 11.0105 10.2461 11.1455 10.5986 11.375H16.0264C16.3789 11.1455 16.7989 11.0105 17.25 11.0105C17.7011 11.0105 18.1211 11.1455 18.4736 11.375H19.875V10.625H16.125H1.875V11ZM1.125 9.875H15.75V9.125H1.125V9.875Z" fill="black"/>
<path d="M17.25 14.0103C16.8358 14.0103 16.5 13.6745 16.5 13.2603C16.5 12.846 16.8358 12.5103 17.25 12.5103C17.6642 12.5103 18 12.846 18 13.2603C18 13.6745 17.6642 14.0103 17.25 14.0103Z" fill="black"/>
<path d="M9.375 14.0103C8.96079 14.0103 8.625 13.6745 8.625 13.2603C8.625 12.846 8.96079 12.5103 9.375 12.5103C9.78921 12.5103 10.125 12.846 10.125 13.2603C10.125 13.6745 9.78921 14.0103 9.375 14.0103Z" fill="black"/>
<path d="M4.5 14.0103C4.08579 14.0103 3.75 13.6745 3.75 13.2603C3.75 12.846 4.08579 12.5103 4.5 12.5103C4.91421 12.5103 5.25 12.846 5.25 13.2603C5.25 13.6745 4.91421 14.0103 4.5 14.0103Z" fill="black"/>
<path d="M20.625 8.38525H19.125V9.13525H20.625V8.38525Z" fill="black"/>
<path d="M13.125 4.625V3.875H14.625C14.832 3.875 15 4.043 15 4.25V7.625H14.25V6.125H13.125V5.375H14.25V4.625H13.125Z" fill="black"/>
<path d="M10.5 5C10.5 4.37975 11.0048 3.875 11.625 3.875H12.375C12.582 3.875 12.75 4.043 12.75 4.25V7.625H12V6.20075L11.25 6.70062V7.625H10.5V6.5C10.5 6.37475 10.5626 6.25775 10.6669 6.188L11.0258 5.94875C10.7111 5.74925 10.5 5.39975 10.5 5ZM12 4.625H11.625C11.4184 4.625 11.25 4.79338 11.25 5C11.25 5.20662 11.4184 5.375 11.625 5.375H12V4.625Z" fill="black"/>
<path d="M8.25 4.625V3.875H9.75C9.957 3.875 10.125 4.043 10.125 4.25V7.25C10.125 7.457 9.957 7.625 9.75 7.625H8.25V6.875H9.375V6.125H8.25V5.375H9.375V4.625H8.25Z" fill="black"/>
<path d="M6 4.625V3.875H7.5C7.707 3.875 7.875 4.043 7.875 4.25V7.25C7.875 7.457 7.707 7.625 7.5 7.625H6V6.875H7.125V6.125H6V5.375H7.125V4.625H6Z" fill="black"/>
<path d="M5.25 6.875H0.75V7.625H5.25V6.875Z" fill="black"/>
<path d="M5.25 5.75H1.5V6.5H5.25V5.75Z" fill="black"/>
<path d="M5.25 4.625H2.25V5.375H5.25V4.625Z" fill="black"/>
</svg>
