<svg width="31" height="31" viewBox="0 0 31 31" fill="none" xmlns="http://www.w3.org/2000/svg">
<g clip-path="url(#clip0)">
<path d="M30.0605 11.9844H0.998047C0.739297 11.9844 0.529297 12.1944 0.529297 12.4531V19.9531C0.529297 20.2119 0.739297 20.4219 0.998047 20.4219H30.0605C30.3193 20.4219 30.5293 20.2119 30.5293 19.9531V12.4531C30.5293 12.1944 30.3193 11.9844 30.0605 11.9844ZM29.5918 19.4844H1.4668V12.9219H29.5918V19.4844Z" fill="black"/>
<path d="M30.0605 10.1094H0.998047C0.739297 10.1094 0.529297 10.3194 0.529297 10.5781V12.4531C0.529297 12.7119 0.739297 12.9219 0.998047 12.9219H30.0605C30.3193 12.9219 30.5293 12.7119 30.5293 12.4531V10.5781C30.5293 10.3194 30.3193 10.1094 30.0605 10.1094ZM29.5918 11.9844H1.4668V11.0469H29.5918V11.9844Z" fill="black"/>
<path d="M4.2793 16.6719C4.02055 16.6719 3.81055 16.8819 3.81055 17.1406V19.9531C3.81055 20.2119 4.02055 20.4219 4.2793 20.4219C4.53805 20.4219 4.74805 20.2119 4.74805 19.9531V17.1406C4.74805 16.8819 4.53805 16.6719 4.2793 16.6719Z" fill="black"/>
<path d="M11.7793 16.6719C11.5205 16.6719 11.3105 16.8819 11.3105 17.1406V19.9531C11.3105 20.2119 11.5205 20.4219 11.7793 20.4219C12.038 20.4219 12.248 20.2119 12.248 19.9531V17.1406C12.248 16.8819 12.038 16.6719 11.7793 16.6719Z" fill="black"/>
<path d="M19.2793 16.6719C19.0205 16.6719 18.8105 16.8819 18.8105 17.1406V19.9531C18.8105 20.2119 19.0205 20.4219 19.2793 20.4219C19.538 20.4219 19.748 20.2119 19.748 19.9531V17.1406C19.748 16.8819 19.538 16.6719 19.2793 16.6719Z" fill="black"/>
<path d="M26.7793 16.6719C26.5205 16.6719 26.3105 16.8819 26.3105 17.1406V19.9531C26.3105 20.2119 26.5205 20.4219 26.7793 20.4219C27.038 20.4219 27.248 20.2119 27.248 19.9531V17.1406C27.248 16.8819 27.038 16.6719 26.7793 16.6719Z" fill="black"/>
<path d="M23.0293 14.3281C22.7705 14.3281 22.5605 14.5381 22.5605 14.7969V19.9531C22.5605 20.2119 22.7705 20.4219 23.0293 20.4219C23.288 20.4219 23.498 20.2119 23.498 19.9531V14.7969C23.498 14.5381 23.288 14.3281 23.0293 14.3281Z" fill="black"/>
<path d="M15.5293 14.3281C15.2705 14.3281 15.0605 14.5381 15.0605 14.7969V19.9531C15.0605 20.2119 15.2705 20.4219 15.5293 20.4219C15.788 20.4219 15.998 20.2119 15.998 19.9531V14.7969C15.998 14.5381 15.788 14.3281 15.5293 14.3281Z" fill="black"/>
<path d="M8.0293 14.3281C7.77055 14.3281 7.56055 14.5381 7.56055 14.7969V19.9531C7.56055 20.2119 7.77055 20.4219 8.0293 20.4219C8.28805 20.4219 8.49805 20.2119 8.49805 19.9531V14.7969C8.49805 14.5381 8.28805 14.3281 8.0293 14.3281Z" fill="black"/>
</g>
<defs>
<clipPath id="clip0">
<rect width="30" height="30" fill="white" transform="translate(0.529297 0.265625)"/>
</clipPath>
</defs>
</svg>
