<svg width="24" height="24" viewBox="0 0 24 24" fill="none" xmlns="http://www.w3.org/2000/svg">
<circle cx="12" cy="12" r="11.5" stroke="#A4A4A4"/>
<path d="M12.0012 11.8544C10.5187 11.8544 9.31686 10.3946 9.31686 8.59395C9.31686 6.79323 9.71145 5.3335 12.0012 5.3335C14.2909 5.3335 14.6855 6.79323 14.6855 8.59395C14.6855 10.3946 13.4837 11.8544 12.0012 11.8544Z" fill="#A4A4A4"/>
<path d="M6.934 16.701C6.98371 13.5641 7.39339 12.6703 10.5284 12.1045C10.5284 12.1045 10.9697 12.6668 11.9982 12.6668C13.0268 12.6668 13.4682 12.1045 13.4682 12.1045C16.5689 12.6641 17.0035 13.5447 17.0607 16.599C17.0653 16.8485 17.0675 16.8616 17.0684 16.8326C17.0682 16.8869 17.0679 16.9872 17.0679 17.1622C17.0679 17.1622 16.3216 18.6668 11.9982 18.6668C7.67495 18.6668 6.92851 17.1622 6.92851 17.1622C6.92851 17.0498 6.92843 16.9716 6.92832 16.9184C6.92916 16.9363 6.93083 16.9016 6.934 16.701Z" fill="#A4A4A4"/>
</svg>
